<svg xmlns="http://www.w3.org/2000/svg" xmlns:xlink="http://www.w3.org/1999/xlink" width="500" zoomAndPan="magnify" viewBox="0 0 375 374.999991" height="500" preserveAspectRatio="xMidYMid meet" version="1.0"><defs><g/><clipPath id="9c1080e907"><rect x="0" width="163" y="0" height="375"/></clipPath></defs><g transform="matrix(1, 0, 0, 1, 100, 0)"><g clip-path="url(#9c1080e907)"><g fill="#38b6ff" fill-opacity="1"><g transform="translate(0.371048, 327.967527)"><g><path d="M 13.390625 -302.75 L 93.40625 -302.75 C 117.601562 -302.75 134.867188 -294.9375 145.203125 -279.3125 C 155.546875 -263.6875 160.71875 -240.835938 160.71875 -210.765625 C 160.71875 -180.691406 156.132812 -158.015625 146.96875 -142.734375 C 137.8125 -127.460938 121.363281 -119.828125 97.625 -119.828125 L 72.953125 -119.828125 L 72.953125 0 L 13.390625 0 Z M 76.484375 -174.46875 C 83.765625 -174.46875 89.109375 -175.816406 92.515625 -178.515625 C 95.921875 -181.222656 98.148438 -185.097656 99.203125 -190.140625 C 100.265625 -195.191406 100.796875 -202.421875 100.796875 -211.828125 C 100.796875 -224.515625 99.382812 -233.675781 96.5625 -239.3125 C 93.75 -244.957031 88.113281 -247.78125 79.65625 -247.78125 L 72.953125 -247.78125 L 72.953125 -174.46875 Z M 76.484375 -174.46875 "/></g></g></g></g></g></svg>