<svg xmlns="http://www.w3.org/2000/svg" xmlns:xlink="http://www.w3.org/1999/xlink" width="200" zoomAndPan="magnify" viewBox="0 0 150 30.000001" height="40" preserveAspectRatio="xMidYMid meet" version="1.0"><path fill="#0ade78" d="M 8.773438 2.175781 L 14.867188 2.175781 C 16.710938 2.175781 18.023438 2.773438 18.808594 3.964844 C 19.597656 5.15625 19.992188 6.894531 19.992188 9.183594 C 19.992188 11.476562 19.644531 13.203125 18.945312 14.367188 C 18.246094 15.527344 16.992188 16.109375 15.183594 16.109375 L 13.308594 16.109375 L 13.308594 25.234375 L 8.773438 25.234375 Z M 13.578125 11.949219 C 14.132812 11.949219 14.539062 11.851562 14.792969 11.644531 C 15.054688 11.4375 15.222656 11.140625 15.300781 10.753906 C 15.382812 10.367188 15.425781 9.816406 15.425781 9.101562 C 15.425781 8.136719 15.316406 7.441406 15.101562 7.011719 C 14.886719 6.582031 14.460938 6.367188 13.816406 6.367188 L 13.308594 6.367188 L 13.308594 11.949219 Z M 13.578125 11.949219 " fill-opacity="1" fill-rule="nonzero"/><path fill="#0ade78" d="M 26.40625 25.449219 C 22.488281 25.449219 20.527344 23.417969 20.527344 19.355469 L 20.527344 11.464844 C 20.527344 9.601562 21.050781 8.121094 22.097656 7.023438 C 23.140625 5.921875 24.578125 5.371094 26.40625 5.371094 C 28.226562 5.371094 29.660156 5.921875 30.707031 7.023438 C 31.757812 8.121094 32.28125 9.601562 32.28125 11.464844 L 32.28125 19.355469 C 32.28125 23.417969 30.324219 25.449219 26.40625 25.449219 Z M 26.40625 21.824219 C 26.777344 21.824219 27.054688 21.691406 27.230469 21.425781 C 27.414062 21.15625 27.503906 20.789062 27.503906 20.320312 L 27.503906 10.714844 C 27.503906 9.570312 27.136719 8.996094 26.40625 8.996094 C 25.671875 8.996094 25.304688 9.570312 25.304688 10.714844 L 25.304688 20.320312 C 25.304688 20.789062 25.394531 21.15625 25.574219 21.425781 C 25.75 21.691406 26.027344 21.824219 26.40625 21.824219 Z M 26.40625 21.824219 " fill-opacity="1" fill-rule="nonzero"/><path fill="#0ade78" d="M 33.351562 2.046875 L 38.128906 2.046875 L 38.128906 25.234375 L 33.351562 25.234375 Z M 33.351562 2.046875 " fill-opacity="1" fill-rule="nonzero"/><path fill="#0ade78" d="M 38.964844 25.527344 L 41.214844 25.527344 C 41.535156 25.527344 41.699219 25.394531 41.699219 25.128906 C 41.699219 25.003906 41.6875 24.90625 41.671875 24.828125 L 38.613281 5.585938 L 43.097656 5.585938 L 43.980469 15.171875 L 44.410156 20.054688 L 44.917969 15.171875 L 45.964844 5.585938 L 50.476562 5.585938 L 46.824219 26.253906 C 46.699219 27.023438 46.441406 27.589844 46.058594 27.953125 C 45.675781 28.320312 45.070312 28.507812 44.25 28.507812 L 38.964844 28.507812 Z M 38.964844 25.527344 " fill-opacity="1" fill-rule="nonzero"/><path fill="#000000" d="M 51.125 2.175781 L 57.378906 2.175781 C 59.058594 2.175781 60.277344 2.589844 61.035156 3.414062 C 61.796875 4.238281 62.179688 5.578125 62.179688 7.441406 L 62.179688 8.464844 C 62.179688 10.664062 61.394531 11.976562 59.820312 12.40625 C 60.785156 12.652344 61.464844 13.234375 61.855469 14.152344 C 62.25 15.0625 62.449219 16.269531 62.449219 17.777344 C 62.449219 20.226562 62.078125 22.082031 61.347656 23.347656 C 60.613281 24.605469 59.292969 25.234375 57.378906 25.234375 L 51.125 25.234375 Z M 56.570312 10.851562 C 56.964844 10.851562 57.234375 10.703125 57.378906 10.410156 C 57.519531 10.109375 57.59375 9.691406 57.59375 9.160156 L 57.59375 6.847656 C 57.59375 6.097656 57.261719 5.722656 56.597656 5.722656 L 55.632812 5.722656 L 55.632812 10.851562 Z M 56.089844 21.179688 C 57.285156 21.179688 57.886719 20.605469 57.886719 19.460938 L 57.886719 16.589844 C 57.886719 15.894531 57.78125 15.367188 57.574219 15.007812 C 57.367188 14.648438 57.007812 14.46875 56.492188 14.46875 L 55.632812 14.46875 L 55.632812 21.152344 Z M 56.089844 21.179688 " fill-opacity="1" fill-rule="nonzero"/><path fill="#000000" d="M 66.796875 25.449219 C 65.273438 25.449219 64.226562 24.945312 63.664062 23.933594 C 63.101562 22.921875 62.820312 21.476562 62.820312 19.597656 C 62.820312 18.058594 63.019531 16.878906 63.425781 16.058594 C 63.828125 15.234375 64.386719 14.628906 65.101562 14.25 C 65.820312 13.863281 66.910156 13.433594 68.375 12.964844 L 69.664062 12.535156 L 69.664062 10.527344 C 69.664062 10.003906 69.5625 9.609375 69.351562 9.335938 C 69.148438 9.058594 68.902344 8.917969 68.617188 8.917969 C 68.371094 8.917969 68.152344 9.035156 67.960938 9.269531 C 67.773438 9.5 67.679688 9.8125 67.679688 10.207031 L 67.679688 11.386719 L 63.117188 11.386719 L 63.117188 10.742188 C 63.117188 8.8125 63.570312 7.433594 64.472656 6.609375 C 65.375 5.785156 66.847656 5.371094 68.890625 5.371094 C 70.519531 5.371094 71.839844 5.796875 72.859375 6.648438 C 73.878906 7.5 74.390625 8.703125 74.390625 10.257812 L 74.390625 25.234375 L 69.71875 25.234375 L 69.71875 22.898438 C 69.484375 23.703125 69.117188 24.332031 68.605469 24.777344 C 68.097656 25.226562 67.492188 25.449219 66.796875 25.449219 Z M 68.644531 21.796875 C 69.003906 21.796875 69.257812 21.652344 69.410156 21.355469 C 69.5625 21.058594 69.640625 20.699219 69.640625 20.269531 L 69.640625 14.792969 C 68.941406 15.066406 68.425781 15.40625 68.097656 15.816406 C 67.765625 16.226562 67.601562 16.796875 67.601562 17.527344 L 67.601562 20.054688 C 67.601562 21.214844 67.949219 21.796875 68.644531 21.796875 Z M 68.644531 21.796875 " fill-opacity="1" fill-rule="nonzero"/><path fill="#000000" d="M 81.421875 25.449219 C 79.273438 25.449219 77.726562 24.90625 76.773438 23.816406 C 75.828125 22.722656 75.355469 21.046875 75.355469 18.789062 L 75.355469 12.726562 C 75.355469 11.023438 75.539062 9.644531 75.902344 8.578125 C 76.269531 7.519531 76.890625 6.71875 77.757812 6.179688 C 78.625 5.640625 79.828125 5.371094 81.363281 5.371094 C 83.046875 5.371094 84.414062 5.8125 85.46875 6.6875 C 86.527344 7.5625 87.058594 8.789062 87.058594 10.363281 L 87.058594 13.371094 L 82.28125 13.371094 L 82.28125 10.605469 C 82.28125 10.089844 82.210938 9.691406 82.066406 9.414062 C 81.921875 9.136719 81.644531 8.996094 81.234375 8.996094 C 80.460938 8.996094 80.074219 9.542969 80.074219 10.636719 L 80.074219 20.164062 C 80.074219 20.609375 80.167969 20.988281 80.355469 21.300781 C 80.542969 21.613281 80.828125 21.769531 81.207031 21.769531 C 81.578125 21.769531 81.859375 21.621094 82.046875 21.316406 C 82.238281 21.011719 82.324219 20.617188 82.308594 20.132812 L 82.28125 16.832031 L 87.058594 16.832031 L 87.058594 20.269531 C 87.058594 21.878906 86.53125 23.144531 85.484375 24.066406 C 84.4375 24.988281 83.082031 25.449219 81.421875 25.449219 Z M 81.421875 25.449219 " fill-opacity="1" fill-rule="nonzero"/><path fill="#000000" d="M 88.019531 25.234375 L 88.019531 2.046875 L 92.664062 2.046875 L 92.664062 12.347656 L 94.914062 5.585938 L 99.777344 5.585938 L 96.824219 14.125 L 100.578125 25.234375 L 95.585938 25.234375 L 92.664062 15.972656 L 92.664062 25.234375 Z M 88.019531 25.234375 " fill-opacity="1" fill-rule="nonzero"/><path fill="#000000" d="M 102.59375 25.234375 L 102.59375 6.609375 L 99.851562 6.609375 L 99.851562 2.175781 L 109.945312 2.175781 L 109.945312 6.609375 L 107.207031 6.609375 L 107.207031 25.234375 Z M 102.59375 25.234375 " fill-opacity="1" fill-rule="nonzero"/><path fill="#000000" d="M 115.984375 25.449219 C 113.960938 25.449219 112.511719 24.894531 111.636719 23.789062 C 110.761719 22.679688 110.320312 21.019531 110.320312 18.816406 L 110.320312 10.929688 C 110.320312 9.121094 110.839844 7.742188 111.878906 6.796875 C 112.914062 5.847656 114.363281 5.371094 116.226562 5.371094 C 120 5.371094 121.886719 7.226562 121.886719 10.929688 L 121.886719 12.347656 C 121.886719 13.78125 121.867188 14.945312 121.835938 15.84375 L 115.015625 15.84375 L 115.015625 19.648438 C 115.015625 20.332031 115.085938 20.863281 115.230469 21.25 C 115.371094 21.632812 115.679688 21.824219 116.148438 21.824219 C 116.5 21.824219 116.753906 21.71875 116.90625 21.503906 C 117.058594 21.289062 117.148438 21.039062 117.175781 20.761719 C 117.199219 20.484375 117.214844 20.078125 117.214844 19.546875 L 117.214844 17.640625 L 121.886719 17.640625 L 121.886719 18.765625 C 121.886719 21.054688 121.445312 22.742188 120.558594 23.828125 C 119.671875 24.90625 118.148438 25.449219 115.984375 25.449219 Z M 117.214844 13.507812 L 117.214844 10.980469 C 117.214844 9.566406 116.867188 8.859375 116.171875 8.859375 C 115.382812 8.859375 114.988281 9.566406 114.988281 10.980469 L 114.988281 13.507812 Z M 117.214844 13.507812 " fill-opacity="1" fill-rule="nonzero"/><path fill="#000000" d="M 128.296875 25.449219 C 124.414062 25.449219 122.472656 23.480469 122.472656 19.546875 L 122.5 17.988281 L 127.199219 17.988281 L 127.222656 20.292969 C 127.222656 20.757812 127.3125 21.113281 127.492188 21.355469 C 127.671875 21.597656 127.96875 21.71875 128.382812 21.71875 C 129.007812 21.71875 129.320312 21.210938 129.320312 20.191406 C 129.320312 19.433594 129.171875 18.847656 128.875 18.417969 C 128.582031 17.988281 128.109375 17.53125 127.464844 17.046875 L 124.972656 15.113281 C 124.113281 14.453125 123.496094 13.773438 123.117188 13.0625 C 122.742188 12.359375 122.558594 11.359375 122.558594 10.070312 C 122.558594 9.066406 122.820312 8.214844 123.34375 7.507812 C 123.875 6.800781 124.578125 6.269531 125.453125 5.910156 C 126.328125 5.550781 127.304688 5.371094 128.382812 5.371094 C 132.191406 5.371094 134.097656 7.269531 134.097656 11.066406 L 134.097656 11.4375 L 129.242188 11.4375 L 129.242188 10.6875 C 129.242188 10.226562 129.164062 9.828125 129.007812 9.496094 C 128.855469 9.164062 128.601562 8.996094 128.246094 8.996094 C 127.921875 8.996094 127.675781 9.09375 127.503906 9.28125 C 127.335938 9.46875 127.25 9.722656 127.25 10.042969 C 127.25 10.761719 127.527344 11.316406 128.082031 11.710938 L 130.984375 13.824219 C 132.023438 14.597656 132.816406 15.4375 133.375 16.335938 C 133.929688 17.238281 134.207031 18.378906 134.207031 19.761719 C 134.207031 21.582031 133.6875 22.988281 132.644531 23.972656 C 131.605469 24.957031 130.160156 25.449219 128.296875 25.449219 Z M 128.296875 25.449219 " fill-opacity="1" fill-rule="nonzero"/><path fill="#000000" d="M 139.03125 25.449219 C 137.800781 25.449219 136.949219 25.191406 136.480469 24.671875 C 136.015625 24.152344 135.785156 23.320312 135.785156 22.175781 L 135.785156 9.90625 L 134.472656 9.90625 L 134.472656 6.339844 L 135.785156 6.339844 L 135.785156 2.175781 L 140.347656 2.175781 L 140.347656 6.339844 L 141.6875 6.339844 L 141.6875 9.90625 L 140.347656 9.90625 L 140.347656 20.9375 C 140.347656 21.28125 140.375 21.535156 140.425781 21.691406 C 140.480469 21.855469 140.625 21.933594 140.855469 21.933594 C 141.035156 21.933594 141.207031 21.925781 141.367188 21.90625 C 141.527344 21.890625 141.636719 21.882812 141.6875 21.882812 L 141.6875 25.097656 C 141.417969 25.171875 141.027344 25.246094 140.515625 25.324219 C 140.007812 25.40625 139.515625 25.449219 139.03125 25.449219 Z M 139.03125 25.449219 " fill-opacity="1" fill-rule="nonzero"/></svg>