<svg xmlns="http://www.w3.org/2000/svg" xmlns:xlink="http://www.w3.org/1999/xlink" width="500" zoomAndPan="magnify" viewBox="0 0 375 374.999991" height="500" preserveAspectRatio="xMidYMid meet" version="1.0"><defs><g/><clipPath id="840c99f02b"><rect x="0" width="326" y="0" height="95"/></clipPath></defs><g transform="matrix(1, 0, 0, 1, 24, 150)"><g clip-path="url(#840c99f02b)"><g fill="#38b6ff" fill-opacity="1"><g transform="translate(2.050095, 73.001636)"><g><path d="M 2.453125 -55.359375 L 17.078125 -55.359375 C 21.503906 -55.359375 24.660156 -53.925781 26.546875 -51.0625 C 28.441406 -48.207031 29.390625 -44.03125 29.390625 -38.53125 C 29.390625 -33.03125 28.550781 -28.882812 26.875 -26.09375 C 25.195312 -23.300781 22.1875 -21.90625 17.84375 -21.90625 L 13.34375 -21.90625 L 13.34375 0 L 2.453125 0 Z M 13.984375 -31.890625 C 15.316406 -31.890625 16.289062 -32.132812 16.90625 -32.625 C 17.53125 -33.125 17.9375 -33.835938 18.125 -34.765625 C 18.320312 -35.691406 18.421875 -37.015625 18.421875 -38.734375 C 18.421875 -41.046875 18.160156 -42.71875 17.640625 -43.75 C 17.128906 -44.78125 16.101562 -45.296875 14.5625 -45.296875 L 13.34375 -45.296875 L 13.34375 -31.890625 Z M 13.984375 -31.890625 "/></g></g></g><g fill="#38b6ff" fill-opacity="1"><g transform="translate(30.850406, 73.001636)"><g><path d="M 15.984375 0.515625 C 6.578125 0.515625 1.875 -4.359375 1.875 -14.109375 L 1.875 -33.0625 C 1.875 -37.53125 3.128906 -41.082031 5.640625 -43.71875 C 8.148438 -46.363281 11.597656 -47.6875 15.984375 -47.6875 C 20.359375 -47.6875 23.800781 -46.363281 26.3125 -43.71875 C 28.832031 -41.082031 30.09375 -37.53125 30.09375 -33.0625 L 30.09375 -14.109375 C 30.09375 -4.359375 25.390625 0.515625 15.984375 0.515625 Z M 15.984375 -8.1875 C 16.878906 -8.1875 17.539062 -8.503906 17.96875 -9.140625 C 18.40625 -9.785156 18.625 -10.671875 18.625 -11.796875 L 18.625 -34.859375 C 18.625 -37.609375 17.742188 -38.984375 15.984375 -38.984375 C 14.222656 -38.984375 13.34375 -37.609375 13.34375 -34.859375 L 13.34375 -11.796875 C 13.34375 -10.671875 13.554688 -9.785156 13.984375 -9.140625 C 14.410156 -8.503906 15.078125 -8.1875 15.984375 -8.1875 Z M 15.984375 -8.1875 "/></g></g></g><g fill="#38b6ff" fill-opacity="1"><g transform="translate(61.261492, 73.001636)"><g><path d="M 2.25 0 L 2.25 -55.671875 L 13.71875 -55.671875 L 13.71875 0 Z M 2.25 0 "/></g></g></g><g fill="#38b6ff" fill-opacity="1"><g transform="translate(75.629261, 73.001636)"><g><path d="M 1.359375 0.703125 L 6.765625 0.703125 C 7.535156 0.703125 7.921875 0.382812 7.921875 -0.25 C 7.921875 -0.550781 7.898438 -0.789062 7.859375 -0.96875 L 0.515625 -47.171875 L 11.28125 -47.171875 L 13.40625 -24.15625 L 14.4375 -12.4375 L 15.65625 -24.15625 L 18.171875 -47.171875 L 29 -47.171875 L 20.234375 2.453125 C 19.929688 4.296875 19.316406 5.65625 18.390625 6.53125 C 17.472656 7.414062 16.023438 7.859375 14.046875 7.859375 L 1.359375 7.859375 Z M 1.359375 0.703125 "/></g></g></g><g fill="#000000" fill-opacity="1"><g transform="translate(103.731792, 73.001636)"><g><path d="M 2.453125 -55.359375 L 17.46875 -55.359375 C 21.5 -55.359375 24.425781 -54.367188 26.25 -52.390625 C 28.082031 -50.410156 29 -47.1875 29 -42.71875 L 29 -40.265625 C 29 -34.984375 27.109375 -31.828125 23.328125 -30.796875 C 25.648438 -30.203125 27.28125 -28.804688 28.21875 -26.609375 C 29.164062 -24.421875 29.640625 -21.519531 29.640625 -17.90625 C 29.640625 -12.019531 28.757812 -7.5625 27 -4.53125 C 25.238281 -1.507812 22.0625 0 17.46875 0 L 2.453125 0 Z M 15.53125 -34.53125 C 16.476562 -34.53125 17.125 -34.882812 17.46875 -35.59375 C 17.8125 -36.3125 17.984375 -37.3125 17.984375 -38.59375 L 17.984375 -44.140625 C 17.984375 -45.941406 17.1875 -46.84375 15.59375 -46.84375 L 13.28125 -46.84375 L 13.28125 -34.53125 Z M 14.375 -9.734375 C 17.25 -9.734375 18.6875 -11.109375 18.6875 -13.859375 L 18.6875 -20.75 C 18.6875 -22.425781 18.4375 -23.691406 17.9375 -24.546875 C 17.445312 -25.410156 16.582031 -25.84375 15.34375 -25.84375 L 13.28125 -25.84375 L 13.28125 -9.796875 Z M 14.375 -9.734375 "/></g></g></g><g fill="#000000" fill-opacity="1"><g transform="translate(132.983112, 73.001636)"><g><path d="M 10.828125 0.515625 C 7.171875 0.515625 4.664062 -0.695312 3.3125 -3.125 C 1.957031 -5.550781 1.28125 -9.019531 1.28125 -13.53125 C 1.28125 -17.226562 1.765625 -20.0625 2.734375 -22.03125 C 3.703125 -24.007812 5.046875 -25.457031 6.765625 -26.375 C 8.484375 -27.300781 11.101562 -28.328125 14.625 -29.453125 L 17.71875 -30.484375 L 17.71875 -35.3125 C 17.71875 -36.5625 17.46875 -37.515625 16.96875 -38.171875 C 16.476562 -38.835938 15.890625 -39.171875 15.203125 -39.171875 C 14.609375 -39.171875 14.082031 -38.890625 13.625 -38.328125 C 13.175781 -37.773438 12.953125 -37.023438 12.953125 -36.078125 L 12.953125 -33.25 L 2 -33.25 L 2 -34.796875 C 2 -39.429688 3.082031 -42.738281 5.25 -44.71875 C 7.414062 -46.695312 10.953125 -47.6875 15.859375 -47.6875 C 19.765625 -47.6875 22.941406 -46.664062 25.390625 -44.625 C 27.835938 -42.582031 29.0625 -39.691406 29.0625 -35.953125 L 29.0625 0 L 17.84375 0 L 17.84375 -5.609375 C 17.289062 -3.671875 16.398438 -2.164062 15.171875 -1.09375 C 13.953125 -0.0195312 12.503906 0.515625 10.828125 0.515625 Z M 15.265625 -8.25 C 16.128906 -8.25 16.742188 -8.601562 17.109375 -9.3125 C 17.472656 -10.019531 17.65625 -10.890625 17.65625 -11.921875 L 17.65625 -25.0625 C 15.976562 -24.414062 14.742188 -23.597656 13.953125 -22.609375 C 13.160156 -21.628906 12.765625 -20.257812 12.765625 -18.5 L 12.765625 -12.4375 C 12.765625 -9.644531 13.597656 -8.25 15.265625 -8.25 Z M 15.265625 -8.25 "/></g></g></g><g fill="#000000" fill-opacity="1"><g transform="translate(162.492166, 73.001636)"><g><path d="M 16.4375 0.515625 C 11.28125 0.515625 7.5625 -0.789062 5.28125 -3.40625 C 3.007812 -6.03125 1.875 -10.050781 1.875 -15.46875 L 1.875 -30.03125 C 1.875 -34.113281 2.3125 -37.429688 3.1875 -39.984375 C 4.070312 -42.535156 5.554688 -44.457031 7.640625 -45.75 C 9.722656 -47.039062 12.609375 -47.6875 16.296875 -47.6875 C 20.335938 -47.6875 23.625 -46.632812 26.15625 -44.53125 C 28.695312 -42.425781 29.96875 -39.484375 29.96875 -35.703125 L 29.96875 -28.484375 L 18.5 -28.484375 L 18.5 -35.125 C 18.5 -36.363281 18.328125 -37.316406 17.984375 -37.984375 C 17.640625 -38.648438 16.972656 -38.984375 15.984375 -38.984375 C 14.128906 -38.984375 13.203125 -37.671875 13.203125 -35.046875 L 13.203125 -12.171875 C 13.203125 -11.097656 13.425781 -10.1875 13.875 -9.4375 C 14.332031 -8.6875 15.015625 -8.3125 15.921875 -8.3125 C 16.816406 -8.3125 17.488281 -8.675781 17.9375 -9.40625 C 18.394531 -10.132812 18.601562 -11.082031 18.5625 -12.25 L 18.5 -20.171875 L 29.96875 -20.171875 L 29.96875 -11.921875 C 29.96875 -8.054688 28.707031 -5.015625 26.1875 -2.796875 C 23.675781 -0.585938 20.425781 0.515625 16.4375 0.515625 Z M 16.4375 0.515625 "/></g></g></g><g fill="#000000" fill-opacity="1"><g transform="translate(192.516653, 73.001636)"><g><path d="M 2.25 0 L 2.25 -55.671875 L 13.40625 -55.671875 L 13.40625 -30.9375 L 18.8125 -47.171875 L 30.484375 -47.171875 L 23.390625 -26.671875 L 32.40625 0 L 20.421875 0 L 13.40625 -22.234375 L 13.40625 0 Z M 2.25 0 "/></g></g></g><g fill="#000000" fill-opacity="1"><g transform="translate(222.54114, 73.001636)"><g><path d="M 7.21875 0 L 7.21875 -44.71875 L 0.640625 -44.71875 L 0.640625 -55.359375 L 24.875 -55.359375 L 24.875 -44.71875 L 18.296875 -44.71875 L 18.296875 0 Z M 7.21875 0 "/></g></g></g><g fill="#000000" fill-opacity="1"><g transform="translate(246.444688, 73.001636)"><g><path d="M 15.46875 0.515625 C 10.613281 0.515625 7.132812 -0.8125 5.03125 -3.46875 C 2.925781 -6.132812 1.875 -10.113281 1.875 -15.40625 L 1.875 -34.34375 C 1.875 -38.6875 3.117188 -41.992188 5.609375 -44.265625 C 8.097656 -46.546875 11.578125 -47.6875 16.046875 -47.6875 C 25.109375 -47.6875 29.640625 -43.238281 29.640625 -34.34375 L 29.640625 -30.9375 C 29.640625 -27.5 29.597656 -24.703125 29.515625 -22.546875 L 13.140625 -22.546875 L 13.140625 -13.40625 C 13.140625 -11.769531 13.3125 -10.488281 13.65625 -9.5625 C 14 -8.644531 14.734375 -8.1875 15.859375 -8.1875 C 16.710938 -8.1875 17.320312 -8.441406 17.6875 -8.953125 C 18.050781 -9.472656 18.265625 -10.066406 18.328125 -10.734375 C 18.390625 -11.398438 18.421875 -12.375 18.421875 -13.65625 L 18.421875 -18.234375 L 29.640625 -18.234375 L 29.640625 -15.53125 C 29.640625 -10.03125 28.578125 -5.976562 26.453125 -3.375 C 24.328125 -0.78125 20.664062 0.515625 15.46875 0.515625 Z M 18.421875 -28.15625 L 18.421875 -34.21875 C 18.421875 -37.613281 17.585938 -39.3125 15.921875 -39.3125 C 14.023438 -39.3125 13.078125 -37.613281 13.078125 -34.21875 L 13.078125 -28.15625 Z M 18.421875 -28.15625 "/></g></g></g><g fill="#000000" fill-opacity="1"><g transform="translate(276.275884, 73.001636)"><g><path d="M 15.203125 0.515625 C 5.878906 0.515625 1.21875 -4.207031 1.21875 -13.65625 L 1.28125 -17.390625 L 12.5625 -17.390625 L 12.625 -11.859375 C 12.625 -10.742188 12.835938 -9.894531 13.265625 -9.3125 C 13.703125 -8.726562 14.414062 -8.4375 15.40625 -8.4375 C 16.90625 -8.4375 17.65625 -9.660156 17.65625 -12.109375 C 17.65625 -13.921875 17.300781 -15.335938 16.59375 -16.359375 C 15.882812 -17.390625 14.753906 -18.488281 13.203125 -19.65625 L 7.21875 -24.296875 C 5.15625 -25.878906 3.671875 -27.519531 2.765625 -29.21875 C 1.867188 -30.914062 1.421875 -33.3125 1.421875 -36.40625 C 1.421875 -38.8125 2.050781 -40.863281 3.3125 -42.5625 C 4.582031 -44.257812 6.269531 -45.535156 8.375 -46.390625 C 10.476562 -47.253906 12.820312 -47.6875 15.40625 -47.6875 C 24.550781 -47.6875 29.125 -43.128906 29.125 -34.015625 L 29.125 -33.125 L 17.46875 -33.125 L 17.46875 -34.921875 C 17.46875 -36.035156 17.28125 -36.988281 16.90625 -37.78125 C 16.539062 -38.582031 15.929688 -38.984375 15.078125 -38.984375 C 14.304688 -38.984375 13.710938 -38.753906 13.296875 -38.296875 C 12.890625 -37.847656 12.6875 -37.238281 12.6875 -36.46875 C 12.6875 -34.75 13.351562 -33.414062 14.6875 -32.46875 L 21.65625 -27.390625 C 24.144531 -25.535156 26.054688 -23.523438 27.390625 -21.359375 C 28.722656 -19.191406 29.390625 -16.453125 29.390625 -13.140625 C 29.390625 -8.765625 28.140625 -5.394531 25.640625 -3.03125 C 23.148438 -0.664062 19.671875 0.515625 15.203125 0.515625 Z M 15.203125 0.515625 "/></g></g></g><g fill="#000000" fill-opacity="1"><g transform="translate(305.269488, 73.001636)"><g><path d="M 11.984375 0.515625 C 9.023438 0.515625 6.984375 -0.101562 5.859375 -1.34375 C 4.742188 -2.59375 4.1875 -4.59375 4.1875 -7.34375 L 4.1875 -36.796875 L 1.03125 -36.796875 L 1.03125 -45.359375 L 4.1875 -45.359375 L 4.1875 -55.359375 L 15.140625 -55.359375 L 15.140625 -45.359375 L 18.359375 -45.359375 L 18.359375 -36.796875 L 15.140625 -36.796875 L 15.140625 -10.3125 C 15.140625 -9.488281 15.203125 -8.882812 15.328125 -8.5 C 15.460938 -8.113281 15.804688 -7.921875 16.359375 -7.921875 C 16.796875 -7.921875 17.207031 -7.941406 17.59375 -7.984375 C 17.976562 -8.023438 18.234375 -8.046875 18.359375 -8.046875 L 18.359375 -0.328125 C 17.710938 -0.148438 16.773438 0.03125 15.546875 0.21875 C 14.328125 0.414062 13.140625 0.515625 11.984375 0.515625 Z M 11.984375 0.515625 "/></g></g></g></g></g></svg>